<?xml version="1.0" encoding="UTF-8"?>
<svg width="51px" height="34px" viewBox="0 0 51 34" version="1.1" xmlns="http://www.w3.org/2000/svg" xmlns:xlink="http://www.w3.org/1999/xlink">
    <title>uk-flag</title>
    <g id="uk-flag" stroke="none" stroke-width="1" fill="none" fill-rule="evenodd">
        <g id="Group-13" transform="translate(-1.000000, 0.000000)">
            <polygon id="Path" fill="#0037A6" points="52 0 52 34 1 34 1 0"></polygon>
            <g id="Group">
                <polygon id="Fill-3" fill="#FFFFFF" points="1 34 6.69510767 34 52 3.80181911 52 0 46.2946862 0 1 30.1981809"></polygon>
                <polygon id="Fill-10" fill="#F20000" points="33 11 36.6506379 11 52.0018326 0.671576144 52 0 49.3394504 0"></polygon>
                <polygon id="Fill-10-Copy" fill="#F20000" points="0.979047422 34 2.01570167 34 20 22 15.9733955 22 0.979047422 32.0110286"></polygon>
            </g>
            <g id="Group-Copy" transform="translate(26.500000, 17.000000) scale(-1, 1) translate(-26.500000, -17.000000) ">
                <polygon id="Fill-3" fill="#FFFFFF" points="1 34 6.69510767 34 52 3.80181911 52 0 46.2946862 0 1 30.1981809"></polygon>
                <polygon id="Fill-10" fill="#F20000" points="33 11 36.6506379 11 53 0 49.3394504 0"></polygon>
                <polygon id="Fill-10-Copy" fill="#F20000" points="2.01570167 34 20 22 15.9733955 22 0.978845561 32.0111634 0.978845561 34"></polygon>
            </g>
            <polygon id="Fill-5" fill="#FFFFFF" points="22 34 31 34 31 0 22 0"></polygon>
            <polygon id="Fill-6" fill="#FFFFFF" points="1 22 52 22 52 12 1 12"></polygon>
            <polygon id="Fill-7" fill="#F20000" points="1 20 52 20 52 14 1 14"></polygon>
            <polygon id="Fill-8" fill="#F20000" points="24 34 29 34 29 0 24 0"></polygon>
        </g>
    </g>
</svg>