<?xml version="1.0" encoding="UTF-8"?>
<svg width="25px" height="25px" viewBox="0 0 25 25" version="1.1" xmlns="http://www.w3.org/2000/svg" xmlns:xlink="http://www.w3.org/1999/xlink">
    <title>A832F74C-3817-4B23-A663-219655B90AF6</title>
    <g id="DESKTOP" stroke="none" stroke-width="1" fill="none" fill-rule="evenodd">
        <g id="ðŸ -HOME-PAGE--wide" transform="translate(-935.000000, -3974.000000)" fill="#707070" fill-rule="nonzero">
            <g id="ic-sertifikati" transform="translate(921.000000, 3961.000000)">
                <path d="M38.3111134,17.7841797 L34.2154103,13.6884766 C33.7759571,13.2490234 33.1807423,13 32.5606251,13 L22.5933399,13 C21.2993946,13.0048828 20.2500782,14.0546875 20.2500782,15.3481445 L20.2500782,21.0908203 C19.9585743,21.0908203 19.6670704,21.0087891 19.0718556,20.8452148 C18.9888478,20.8227539 18.9077931,20.8129883 18.8296681,20.8129883 C18.5581837,20.8129883 18.3203907,20.9350586 18.1626759,21.0957031 C17.286211,21.9873047 17.3291798,21.9633789 16.1265431,22.2919922 C15.7993946,22.3803711 15.5420704,22.644043 15.4536915,22.9790039 C15.1377735,24.1835938 15.1563282,24.1586914 14.2808399,25.0454102 C14.0391407,25.2915039 13.9439259,25.6547852 14.0327931,25.9941406 C14.3531056,27.1845703 14.3511524,27.1850586 14.0327931,28.375 C13.9439259,28.7143555 14.0386524,29.078125 14.2808399,29.324707 C15.1597462,30.2109375 15.1392384,30.1933594 15.4536915,31.3896484 C15.5415821,31.7255859 15.7993946,31.9887695 16.1265431,32.078125 C16.2144337,32.1015625 16.2691212,32.1171875 16.3443165,32.137207 L16.3443165,37.21875 C16.3443165,37.4897461 16.4844532,37.7407227 16.714922,37.8833008 C16.942461,38.0253906 17.2320118,38.0375977 17.4746876,37.9174805 L20.2500782,36.5297852 L23.0254689,37.9174805 C23.1353321,37.972168 23.2559376,38 23.3750782,38 L36.6563282,38 C37.9497853,38 38.9995899,36.9501953 38.9995899,35.6567383 L38.9995899,19.4438477 C38.9995899,18.8242188 38.7505665,18.2236328 38.3111134,17.7841797 Z M32.7510548,14.5913086 C32.8877735,14.6254883 33.0098439,14.6938477 33.1123829,14.7963867 L37.208086,18.8920898 C37.3106251,18.9946289 37.3789845,19.1166992 37.4131642,19.253418 L32.7510548,19.253418 L32.7510548,14.5913086 L32.7510548,14.5913086 Z M15.6245899,28.4628906 C15.9029103,27.3740234 15.9029103,26.9868164 15.6250782,25.9047852 C16.3892384,25.1137695 16.5801564,24.7827148 16.8765431,23.7045898 C17.9297657,23.4052734 18.2466603,23.2202148 19.0191212,22.4501953 C19.4976368,22.578125 19.8404103,22.652832 20.2500782,22.652832 C20.6543751,22.652832 20.9947071,22.5800781 21.4800587,22.449707 C22.2398243,23.2070312 22.5782032,23.4057617 23.6216603,23.7036133 C23.9136524,24.7753906 24.0957814,25.1015625 24.8741017,25.9042969 C24.5923634,27.0004883 24.5928517,27.3691406 24.8741017,28.4628906 C24.1114064,29.2524414 23.9195118,29.5839844 23.6236134,30.6582031 C22.9092579,30.8496094 22.4517384,31.0175781 21.8047657,31.6035156 C21.3194142,31.3823242 20.7901173,31.2670898 20.2495899,31.2670898 C19.7090626,31.2670898 19.180254,31.3823242 18.6944142,31.6040039 C18.0508595,31.0239258 17.5928517,30.8549805 16.8765431,30.6601562 C16.5850392,29.5913086 16.4019337,29.2651367 15.6245899,28.4628906 Z M20.5996876,34.9575195 C20.379961,34.8476562 20.1206837,34.8476562 19.9009571,34.9575195 L17.9068165,35.9545898 L17.9068165,33.0146484 C17.9126759,33.0205078 17.9160939,33.0229492 17.9219532,33.0288086 C18.1050587,33.215332 18.3457814,33.3115234 18.5879689,33.3115234 C18.7588673,33.3115234 18.9307423,33.2636719 19.0840626,33.1665039 C19.4380665,32.9423828 19.8438282,32.8305664 20.2495899,32.8305664 C20.6553517,32.8305664 21.0611134,32.9423828 21.4151173,33.1655273 C21.5694142,33.2641602 21.7412892,33.3125 21.9116993,33.3125 C22.1538868,33.3125 22.3936329,33.215332 22.5772267,33.0297852 C22.5835743,33.0234375 22.5874806,33.0209961 22.5938282,33.0141602 L22.5938282,35.9545898 L20.5996876,34.9575195 L20.5996876,34.9575195 Z M37.4375782,35.6567383 C37.4375782,36.0864258 37.0860157,36.4379883 36.6563282,36.4379883 L24.1563282,36.4379883 L24.1563282,32.1357422 C24.2315235,32.1162109 24.2857228,32.1010742 24.3731251,32.0776367 C24.7002735,31.9887695 24.9575978,31.7250977 25.0454884,31.3901367 C25.3614064,30.1850586 25.3428517,30.2104492 26.2188282,29.3237305 C26.4605274,29.0776367 26.5557423,28.7138672 26.4663868,28.3745117 C26.1475392,27.1865234 26.1465626,27.1860352 26.4663868,25.9936523 C26.5557423,25.6542969 26.4605274,25.2905273 26.2188282,25.0439453 C25.339922,24.1577148 25.3604298,24.175293 25.0454884,22.9790039 C24.9575978,22.6435547 24.7002735,22.3798828 24.3741017,22.2910156 C23.1909962,21.9702148 23.2075978,21.9868164 22.3369923,21.09375 C22.1934376,20.9487305 22.0059376,20.8730469 21.8125782,20.8417969 L21.8125782,15.3481445 C21.8125782,14.918457 22.1641407,14.5625 22.5938282,14.5625 L31.1890431,14.5625 L31.1890431,19.644043 C31.1890431,20.293457 31.711504,20.8125 32.3609181,20.8125 L37.4380665,20.8125 L37.4380665,35.6567383 L37.4375782,35.6567383 Z" id="ic-cert"></path>
            </g>
        </g>
    </g>
</svg>