<?xml version="1.0" encoding="UTF-8"?>
<svg width="54px" height="54px" viewBox="0 0 54 54" version="1.1" xmlns="http://www.w3.org/2000/svg" xmlns:xlink="http://www.w3.org/1999/xlink">
    <title>999843E4-1256-4778-BC7A-DAA897341803</title>
    <g id="DESKTOP" stroke="none" stroke-width="1" fill="none" fill-rule="evenodd">
        <g id="ðŸ -HOME-PAGE--wide" transform="translate(-1321.000000, -3961.000000)">
            <g id="ic-dostava" transform="translate(1321.000000, 3961.000000)">
                <circle id="Oval" fill="#D8D8D8" cx="27" cy="27" r="27"></circle>
                <path d="M25.9791667,22.4166667 C26.183125,22.4166667 26.35,22.2497917 26.35,22.0458333 L26.35,21.3041667 C26.35,21.1002083 26.183125,20.9333333 25.9791667,20.9333333 L14.8541667,20.9333333 C14.6502083,20.9333333 14.4833333,21.1002083 14.4833333,21.3041667 L14.4833333,22.0458333 C14.4833333,22.2497917 14.6502083,22.4166667 14.8541667,22.4166667 L25.9791667,22.4166667 Z M42.2958333,31.3166667 L41.1833333,31.3166667 L41.1833333,26.3057812 C41.1833333,25.5270313 40.868125,24.7621875 40.311875,24.2105729 L36.4227604,20.3214583 C35.8757813,19.7652083 35.1109375,19.45 34.3275521,19.45 L32.2833333,19.45 L32.2833333,17.1601042 C32.2833333,15.9688021 31.2542708,15 29.9934375,15 L18.2565625,15 C16.9957292,15 15.9666667,15.9688021 15.9666667,17.1601042 L15.9666667,17.9666667 L13.3708333,17.9666667 C13.166875,17.9666667 13,18.1335417 13,18.3375 L13,19.0791667 C13,19.283125 13.166875,19.45 13.3708333,19.45 L24.4958333,19.45 C24.6997917,19.45 24.8666667,19.283125 24.8666667,19.0791667 L24.8666667,18.3375 C24.8666667,18.1335417 24.6997917,17.9666667 24.4958333,17.9666667 L17.45,17.9666667 L17.45,17.1601042 C17.45,16.7846354 17.8115625,16.4833333 18.2565625,16.4833333 L29.9934375,16.4833333 C30.4384375,16.4833333 30.8,16.7846354 30.8,17.1601042 L30.8,31.3166667 L22.623125,31.3166667 C21.9463542,30.4220312 20.8802083,29.8333333 19.675,29.8333333 C18.8359896,29.8333333 18.0711458,30.1207292 17.45,30.5935417 L17.45,26.8666667 L15.9666667,26.8666667 L15.9666667,33.5416667 C15.9666667,35.5905208 17.6261458,37.25 19.675,37.25 C21.7238542,37.25 23.3833333,35.5905208 23.3833333,33.5416667 C23.3833333,33.2867188 23.3555208,33.0410417 23.3091667,32.8 L32.3575,32.8 C32.3065104,33.0410417 32.2833333,33.2867188 32.2833333,33.5416667 C32.2833333,35.5905208 33.9428125,37.25 35.9916667,37.25 C38.0405208,37.25 39.7,35.5905208 39.7,33.5416667 C39.7,33.2867188 39.6721875,33.0410417 39.6258333,32.8 L42.2958333,32.8 C42.4997917,32.8 42.6666667,32.633125 42.6666667,32.4291667 L42.6666667,31.6875 C42.6666667,31.4835417 42.4997917,31.3166667 42.2958333,31.3166667 Z M19.675,35.7666667 C18.4466146,35.7666667 17.45,34.7700521 17.45,33.5416667 C17.45,32.3132813 18.4466146,31.3166667 19.675,31.3166667 C20.9033854,31.3166667 21.9,32.3132813 21.9,33.5416667 C21.9,34.7700521 20.9033854,35.7666667 19.675,35.7666667 Z M32.2833333,20.9333333 L34.3275521,20.9333333 C34.7169271,20.9333333 35.1016667,21.0909375 35.3751562,21.3690625 L39.2642708,25.2581771 C39.3013542,25.2952604 39.3152604,25.34625 39.3477083,25.3879688 L32.2833333,25.3879688 L32.2833333,20.9333333 Z M35.9916667,35.7666667 C34.7632812,35.7666667 33.7666667,34.7700521 33.7666667,33.5416667 C33.7666667,32.3132813 34.7632812,31.3166667 35.9916667,31.3166667 C37.2200521,31.3166667 38.2166667,32.3132813 38.2166667,33.5416667 C38.2166667,34.7700521 37.2200521,35.7666667 35.9916667,35.7666667 Z M39.7,31.3166667 L38.9397917,31.3166667 C38.2630208,30.4220312 37.196875,29.8333333 35.9916667,29.8333333 C34.7864583,29.8333333 33.7203125,30.4220312 33.0435417,31.3166667 L32.2833333,31.3166667 L32.2833333,26.8666667 L39.7,26.8666667 L39.7,31.3166667 Z M24.8666667,25.0125 L24.8666667,24.2708333 C24.8666667,24.066875 24.6997917,23.9 24.4958333,23.9 L13.3708333,23.9 C13.166875,23.9 13,24.066875 13,24.2708333 L13,25.0125 C13,25.2164583 13.166875,25.3833333 13.3708333,25.3833333 L24.4958333,25.3833333 C24.6997917,25.3833333 24.8666667,25.2164583 24.8666667,25.0125 Z" id="Shape" fill="#707070" fill-rule="nonzero"></path>
            </g>
        </g>
    </g>
</svg>