<svg height="54" viewBox="0 0 54 54" width="54" xmlns="http://www.w3.org/2000/svg"><g fill="none" fill-rule="evenodd"><circle cx="27" cy="27" fill="#d8d8d8" r="27"/><path d="m33.2173913 13.25c.9001205 0 1.6263646.709727 1.7003179 1.6000342l.0062038.1499658-.0009242 6.864 3.5147382 2.5269885.0112404.0079846c.0219678.0164152.0431593.0341427.0634523.0531609l-.0746927-.0611455c.035415.0254545.0682252.0537076.098216.0843408.0284978.0289988.0551329.0610719.0793556.0958262.0664395.0953261.1076723.2006979.125111.3082062.0008224.0060677.0017389.0121645.0025807.018278l.0058397.0586272c.0004982.0086729.0008454.0173474.0010422.0260195l.0001278.0177136v10.5c0 1.1816547-.8879609 2.1613537-2.0278425 2.2443112l-.1569401.0056888h-19.1304348c-1.1614693 0-2.0999289-.9283227-2.1793384-2.0901823l-.0054442-.1598177v-10.5l-.0000112-.0097095c.0013605-.1129932.028216-.2266133.0821819-.3318136.0071704-.0138253.0146963-.0274767.0226436-.0408864.0092304-.0156092.0192347-.0311512.0298871-.046435l.0117653-.0164157c.0058483-.0079285.0118573-.0157476.0180242-.0234521l-.0297895.0398678c.0274524-.0393882.0580033-.0753325.0910949-.1077333.0022696-.0020413.00485-.0045295.0074496-.0070005l.0193527-.0179827c.0153593-.013627.0311958-.0265421.0474596-.0387365l.0122148-.008714 3.5137158-2.5269885.0000982-6.864c0-.9087384.6788693-1.6662938 1.5581936-1.7435192l.1483281-.0064808zm0 1.5h-12.4347826c-.0886813 0-.1729783.0726767-.1986139.1810143l-.0079078.0689857-.0000982 12.275 1.5919861 1.1097014c.3398201.2368443.4232984.704323.1864542 1.0441431-.215313.3089273-.621233.406002-.9485691.2431542l-.0955741-.0567001-4.5602971-3.1782986.0000112 9.063c0 .386364.2640395.6946023.5934669.7432923l.0913157.0067077h19.1304348c.3396742 0 .63202-.2760413.6783854-.6467013l.0063972-.1032987-.0000112-9.064-4.5602747 3.1792986c-.3398201.2368443-.8072989.1533659-1.0441432-.1864541-.2153129-.3089273-.1658965-.7233577.1001796-.9741002l.0862746-.0700429 1.5909637-1.1097014.0009242-12.275c0-.1211213-.0695168-.2139849-.1542733-.2415749zm-2.8695652 14.5c.1407301 0 .2778779.0395742.3961963.113187l.0849701.0615053 4.7826087 4c.3177336.2657409.3598821.7387405.0941412 1.0564741-.2415826.2888488-.6544533.3499412-.9662422.1590067l-.0902318-.0648654-4.5742684-3.8253077h-6.151l-4.5732684 3.8253077c-.2888487.2415826-.7060164.2287112-.979133-.0143436l-.077341-.0797977c-.2415826-.2888488-.2287112-.7060165.0143435-.979133l.0797977-.0773411 4.7826087-4c.1079508-.0902861.2385428-.1479175.3765288-.1673586l.1046376-.0073337zm.9565217-4c.4142136 0 .75.3357864.75.75 0 .3796958-.2821539.693491-.6482294.7431534l-.1017706.0068466h-8.6086956c-.4142136 0-.75-.3357864-.75-.75 0-.3796958.2821539-.693491.6482294-.7431534l.1017706-.0068466zm-12.228359-1.538-1.778 1.278 1.778 1.239zm15.847 0v2.517l1.778-1.239zm-3.618641-1.462c.4142136 0 .75.3357864.75.75 0 .3796958-.2821539.693491-.6482294.7431534l-.1017706.0068466h-8.6086956c-.4142136 0-.75-.3357864-.75-.75 0-.3796958.2821539-.693491.6482294-.7431534l.1017706-.0068466zm0-3c.4142136 0 .75.3357864.75.75 0 .3796958-.2821539.693491-.6482294.7431534l-.1017706.0068466h-6.6956521c-.4142136 0-.75-.3357864-.75-.75 0-.3796958.2821538-.693491.6482294-.7431534l.1017706-.0068466zm-6.6956521-3c.4142135 0 .75.3357864.75.75 0 .3796958-.2821539.693491-.6482295.7431534l-.1017705.0068466h-1.9130435c-.4142136 0-.75-.3357864-.75-.75 0-.3796958.2821539-.693491.6482294-.7431534l.1017706-.0068466z" fill="#707070" fill-rule="nonzero"/></g></svg>