<?xml version="1.0" encoding="UTF-8"?>
<svg width="30px" height="25px" viewBox="0 0 30 25" version="1.1" xmlns="http://www.w3.org/2000/svg" xmlns:xlink="http://www.w3.org/1999/xlink">
    <title>B35F9EBC-5C6D-4631-9C47-3E867807D21E</title>
    <g id="DESKTOP" stroke="none" stroke-width="1" fill="none" fill-rule="evenodd">
        <g id="ðŸ -HOME-PAGE--wide" transform="translate(-533.000000, -3976.000000)" fill="#707070" fill-rule="nonzero">
            <g id="Group-20" transform="translate(521.000000, 3961.000000)">
                <g id="ic-online-kupovina" transform="translate(1.000000, 0.000000)">
                    <path d="M40.9806607,29.4694711 L40.7150225,28.677765 C40.6421022,28.4590041 40.4077155,28.3392064 40.1889546,28.4121267 L38.3971986,29.0163235 L34.5167969,17.3907441 C34.3761649,16.9688481 34.0792751,16.625081 33.6834221,16.4271545 C33.2823604,16.2292279 32.8344214,16.1979764 32.4125254,16.3386084 L20.1827493,20.4169366 L19.2452026,17.77618 C18.651423,16.1094303 17.0784279,15 15.3127149,15 L11.4166874,15 C11.1875093,15 11,15.1875093 11,15.4166874 L11,16.2500623 C11,16.4792404 11.1875093,16.6667497 11.4166874,16.6667497 L15.3127149,16.6667497 C16.3700593,16.6667497 17.3128146,17.3334496 17.6669989,18.3282909 L22.7037082,32.490455 C21.4901061,33.3863329 20.7661117,34.9124507 21.0682101,36.6000348 C21.3598913,38.2303243 22.6516223,39.5689327 24.2714947,39.9074912 C26.9643372,40.4648107 29.334247,38.4282509 29.334247,35.8343716 C29.334247,35.1520459 29.1571548,34.5218062 28.8654736,33.9540696 L40.7150225,29.995539 C40.9337834,29.9226187 41.053581,29.688232 40.9806607,29.4694711 L40.9806607,29.4694711 Z M20.7400687,21.9847231 L26.2820116,20.1356726 L27.5841598,24.0369087 C27.6570801,24.2556696 27.8914668,24.3754672 28.1102277,24.3025469 L28.9019338,24.0369087 C29.1206947,23.9639884 29.2404923,23.7296017 29.167572,23.5108408 L27.8654238,19.6096047 L32.9385933,17.916812 L36.818995,29.5476 L27.735209,32.5737924 C27.0216318,32.016473 26.1413796,31.6674973 25.1673727,31.6674973 C24.8392313,31.6674973 24.5267158,31.7143746 24.2246174,31.7872949 L20.7400687,21.9847231 Z M25.1673727,38.3344962 C23.7870956,38.3344962 22.6672481,37.2146487 22.6672481,35.8343716 C22.6672481,34.4540945 23.7870956,33.334247 25.1673727,33.334247 C26.5476498,33.334247 27.6674973,34.4540945 27.6674973,35.8343716 C27.6674973,37.2146487 26.5476498,38.3344962 25.1673727,38.3344962 Z" id="ic-shipping"></path>
                </g>
            </g>
        </g>
    </g>
</svg>