<svg height="33" viewBox="0 0 300 33" width="300" xmlns="http://www.w3.org/2000/svg"><g fill="none" fill-rule="evenodd"><path d="m48.0372544 31.1955817 3.3934237-30.87314823h20.742137l-.9177837 8.34992938h-9.5655243l-.398743 3.62788575h8.6335098l-.8624479 7.8460591h-8.6334899l-1.2144492 11.049274zm46.4120939-6.0586841c-.7038438 1.0450562-1.5329077 1.9903073-2.4853457 2.829722-.9590473.8452879-1.996553 1.551082-3.1202183 2.1194192-1.1160238.5645008-2.283652.9915645-3.5000264 1.2856602-1.2107774.292751-2.3935495.4403328-3.5602647.4403328-1.4848759 0-2.9040754-.2232612-4.2579557-.6634556-1.3539001-.4401944-2.5873833-1.0887395-3.6866159-1.9490762-1.5482302-1.2118397-2.6614754-2.7724335-3.3517433-4.6731398-.6891763-1.8975422-.9221502-3.8866433-.6925306-5.9764986.1599735-1.4558845.5338273-2.8647636 1.1128085-4.2270524.5812041-1.3674304 1.3503076-2.6387932 2.3528812-3.7690604 1.4657427-1.65248884 3.2398611-2.8967597 5.2702746-3.77495339 2.0277142-.87696762 4.0983592-1.31504605 6.2019715-1.31504605 1.1843798 0 2.3358717.14034409 3.4595369.42271315 1.1181079.28100458 2.1853258.70939319 3.1878796 1.28566021 1.0090837.58006384 1.8754615 1.27399288 2.6064969 2.07241369.7470327.81584269 1.3522924 1.73819429 1.8173271 2.76517599.145564.3215041.2774926.6485451.3936222.9811628l.7666821-6.9752811h11.4666887c1.526179 0 2.866861.1344511 4.020576.41094695 1.148217.27513136 2.140549.81580315 3.00772 1.58513475.84004.7453246 1.46739 1.65025425 1.853927 2.7534296.38479 1.098192.545061 2.2678315.427899 3.5048844-.104717 1.1053704-.420476 2.1323917-.899126 3.0880643-.479841.9580457-1.117354 1.7498616-1.923652 2.3835556-.799411.6283152-1.733986 1.0332702-2.813371 1.2035341l3.779206 6.8711453 6.105134-21.800695h9.386596l1.109296 6.2583338c.087528.4938245.217492 1.2388525.366946 2.2368241.149435.9978926.254132 1.8432595.316375 2.5361207.062203.6924064.117777 1.5557885.163268 2.5890389h.135521c.701661-2.5772529 1.54702-5.0787078 2.550546-7.497028l2.5409-6.1232895h9.386675l.99388 20.1958246 9.417638-20.1958246h10.152624l6.070975 25.1799876h-9.804988l-.412279-3.1643568h-6.905895l-1.108005 3.1643568h-16.074125l-.005558-9.9745155c-.000238-.3816402-.004366-.76332-.003791-1.1448416.000576-.381482.011294-.7984999.024215-1.238714.01296-.4402339.028283-.7926663.038902-1.0509097.010598-.258184.018617-.6516102.034713-1.1741482-.517433 1.8669303-1.074661 3.4904288-1.644591 4.8845161l-3.965101 9.6986129h-5.456368l-1.833066-9.6986129c-.263202-1.3928217-.463785-3.0175858-.565028-4.8845161-.08354.5459715-.23613 1.3443923-.462971 2.3894288-.226821 1.0450166-.369745 1.7868608-.461938 2.2191847l-2.12749 9.9745155h-16.321865l-3.504294-8.3248348-.914985 8.3248348h-8.9093751l.7536421-6.8568083c-.1573735.269713-.3241945.5359653-.5007807.7981242zm-7.6100761-4.2622324c.3886802-.7086812.661707-1.4619357.7525703-2.2895841.145048-1.3208204-.1139662-2.4116165-.7641018-3.2876942-.7045981-.9495226-1.6992921-1.4266174-3.0015283-1.4266174-.7129937 0-1.413007.1679107-2.0988687.493172-.687787.3262105-1.272782.7895813-1.7170162 1.4148511-.5734833.8072207-.8982931 1.7378383-1.0117036 2.771069-.0805425.7336968-.0243335 1.4560427.175038 2.1603734.1993914.7044692.5322991 1.2892791.9980086 1.7495452.6449157.6374117 1.4674496.9628312 2.4691499.9628312.8249156 0 1.628733-.2278292 2.4141118-.6810158.7809527-.4506752 1.3550711-1.0841912 1.78434-1.8669304zm18.3237578-8.3952737-.544585 4.9549946c1.390559 0 2.449104-.1410164 3.164201-.4285863.714999-.2875897 1.131803-.9687638 1.250454-2.0489011.11734-1.0683513-.150229-1.7437708-.801357-2.0371942-.651167-.2934234-1.678074-.440313-3.068713-.440313zm54.471922 9.569422h3.800622c-.322746-1.9960619-.559332-3.5692327-.695667-4.7142325-.136235-1.1444064-.19824-2.3776823-.178789-3.6810215h-.206179c-.116229.6281768-.2713 1.3099639-.466146 2.0430081-.196752.7403215-.398664 1.4084242-.605657 2.0254478-.204572.6097858-.437367 1.2509153-.694178 1.9197892-.254787.6635545-.573841 1.4677101-.954006 2.4070089z" fill="#fffffe"/><path d="m0 31.250161 2.66673503-31.250161h31.62414817l-.2145947 2.51144132h-29.10309631l-2.45253721 28.74277358zm4.19102878 0 2.31016871-27.07448441h27.43309961l-.2145948 2.51144133h-24.9120675l-2.09593119 24.56709698zm4.19065167 0 1.95435655-22.89878804h23.2420708l-.2146146 2.51142154h-20.720999l-1.7401588 20.3914204zm8.38205755 0 1.2415812-14.5478106h14.8604102l-.2146146 2.5114018h-12.3393384l-1.0273437 12.0404627zm4.1906517 0 .885392-10.3725493h10.6697585l-.2145948 2.5114216h-8.1487264l-.6711743 7.8651816z" fill="#ffda1a"/><path d="m280.31349 31.2386915 2.767721-25.17996784h16.917102l-.748521 6.81017854h-8.007768l-.272332 2.4774677h7.247695l-.703368 6.3991722h-7.247714l-.294919 2.6830104h8.214105l-.748561 6.810139zm-99.856017 0 3.393384-30.87314825h11.256143l-3.393444 30.87314825zm13.951181 0 2.767681-25.17996784h7.38909c2.52784 0 4.684843.15559071 6.472517.45791287 1.787377.30232217 3.378836.97784056 4.786623 2.01955478 1.027939.76063054 1.879967 1.67224419 2.544691 2.74168319.667145 1.0733346 1.132299 2.2426577 1.398835 3.5166111.266557 1.2740126.330189 2.5714588.185637 3.8865049-.12 1.0919825-.370956 2.1795948-.771862 3.2700745-.473232 1.2871434-1.123527 2.4481214-1.94608 3.4989915-.822594 1.0508503-1.758082 1.9491158-2.801145 2.7005904-1.043043.7514549-2.182825 1.3689333-3.420536 1.8493305-1.242772.4823945-2.529686.790669-3.871042.9628115-.9.1154867-1.796288.2054042-2.695058.2348296-.893013.0292474-2.008025.041073-3.339715.041073zm9.89212-7.7083847c.602938-.0175801 1.095283-.0469659 1.475587-.0763122.380384-.0293265.799848-.0853099 1.244995-.1760975.446973-.0911832.858737-.2312504 1.220384-.4344398.724902-.4073084 1.291776-.9993362 1.702011-1.7612719.411585-.7644076.667959-1.5733883.762792-2.4364145.143262-1.3033193.01048-2.3063534-.394356-3.0058788-.407238-.7036584-1.019861-1.1749986-1.836163-1.4148511-.821859-.2415137-1.856725-.369874-3.109263-.3933471zm15.674906 7.7083847 2.767661-25.17996784h16.917122l-.748482 6.81017854h-8.007826l-.272332 2.4774677h7.247694l-.703367 6.3991722h-7.247675l-.294899 2.6830104h8.214065l-.317744 2.8906491 9.914073-21.26047794h10.152662l4.464314 18.51616474 2.035177-18.51616474h9.115634l-1.868098 16.99607044h8.838597l-.899504 8.1838974h-25.420152l-.412259-3.1643568h-6.905935l-1.107946 3.1643568zm28.74647-9.1467682h3.800682c-.322766-1.9960422-.559312-3.5691339-.695687-4.7142325-.136335-1.1444855-.19826-2.3776823-.178789-3.6810215h-.20616c-.116248.6281767-.27124 1.309865-.466185 2.0430279-.196812.7403808-.398545 1.4083253-.605657 2.0254279-.204651.6098848-.437248 1.2508165-.694138 1.9197893-.254866.6636731-.573841 1.46771-.954066 2.4070089z" fill="#fffffe"/></g></svg>