<?xml version="1.0" encoding="UTF-8"?>
<svg width="51px" height="34px" viewBox="0 0 51 34" version="1.1" xmlns="http://www.w3.org/2000/svg" xmlns:xlink="http://www.w3.org/1999/xlink">
    <title>sr-flag</title>
    <g id="sr-flag" stroke="none" stroke-width="1" fill="none" fill-rule="evenodd">
        <polygon id="Fill-1" fill="#FFFFFF" points="0 34 51 34 51 23 0 23"></polygon>
        <polygon id="Fill-3" fill="#0062D9" points="0 23 51 23 51 11 0 11"></polygon>
        <polygon id="Fill-4" fill="#FF0000" points="4.97379915e-14 11 51 11 51 -8.8817842e-15 4.97379915e-14 -8.8817842e-15"></polygon>
        <g id="Group" transform="translate(9.000000, 6.000000)">
            <path d="M0,6 L14,6 L14,16 C14,19.8659932 10.8659932,23 7,23 C3.13400675,23 4.73447626e-16,19.8659932 0,16 L0,6 L0,6 Z" id="Rectangle" fill="#F9141B"></path>
            <path d="M8.59195,7.01098608 C8.77709858,6.98409147 9.01909093,7.00657663 9.31792707,7.07844155 L9.50405,7.12748608 L9.3625,8.00848608 L8.34911551,8.49348827 L8.43395,10.0084861 L9.53395,10.9374861 L11.1521018,9.03748608 L10.54095,7.09359275 L11.6333436,7.19348608 C12.1776511,7.8234014 12.5361865,8.37573474 12.70895,8.85048608 C12.8660077,9.28207821 12.982765,9.9607078 13.0592219,10.8863748 L13.08095,11.1714861 L12.4683449,16.7354861 L12.6065362,18.5274861 L11.4205,18.1329861 C10.9049468,17.5434967 10.5695968,17.0626634 10.41445,16.6904861 C10.2765418,16.3596618 10.1685975,15.8450105 10.090617,15.1465323 L10.062779,14.8759861 L9.4635,15.6404861 L10.49845,17.7304861 L10.07595,18.2299861 L9.10445,18.066994 L8.43395,16.6904861 L8.018,17.8274861 L8.47595,19.7369861 L9.40825817,22.0886277 L8.54103673,22.5164861 L7.08,22.609 L7.08095,22.6144861 L7.04,22.611 L7,22.6144861 L7,22.609 L5.53991327,22.5164861 L4.67269183,22.0886277 L5.605,19.7369861 L6.06295,17.8274861 L5.647,16.6904861 L4.9765,18.066994 L4.005,18.2299861 L3.5825,17.7304861 L4.61745,15.6404861 L4.01817105,14.8759861 C3.93887044,15.7134754 3.82164675,16.3183088 3.6665,16.6904861 C3.51135325,17.0626634 3.17600325,17.5434967 2.66045,18.1329861 L1.4744138,18.5274861 L1.61260509,16.7354861 L1,11.1714861 C1.07523653,10.0989041 1.19923653,9.32523742 1.372,8.85048608 C1.54476347,8.37573474 1.90329892,7.8234014 2.44760637,7.19348608 L3.54,7.09359275 L2.92884817,9.03748608 L4.547,10.9374861 L5.647,10.0084861 L5.73183449,8.49348827 L4.71845,8.00848608 L4.5769,7.12748608 C4.96278837,7.01754588 5.26682171,6.97871255 5.489,7.01098608 C5.71117829,7.04325961 6.03016742,7.17259295 6.44596737,7.39898608 L7.04,9.649 L7.63498263,7.39898608 C7.99138259,7.20493482 8.27665623,7.08219281 8.49080354,7.03076003 L8.59195,7.01098608 Z" id="Path" fill="#FFFFFF"></path>
            <polygon id="Path" fill="#EFC134" points="7.03532123 -1.42108547e-14 7.03434382 0.016 10.2262058 0.241 12.8472898 1.676 11.1190156 4.71204953 10.7804371 6.154 7.03434382 6.308 7.03532123 6.31771132 6.92294055 6.312 6.8119686 6.31771132 6.81153728 6.308 3.06685277 6.154 2.7282742 4.71204953 1 1.676 3.62108404 0.241 6.81153728 0.016 6.8119686 -1.42108547e-14 6.92294055 0.008"></polygon>
            <rect id="Rectangle" fill="#FA141D" x="4" y="11" width="2" height="2"></rect>
            <rect id="Rectangle-Copy-6" fill="#F1C83B" x="4" y="7" width="1" height="2"></rect>
            <rect id="Rectangle-Copy-7" fill="#F1C83B" x="9" y="7" width="1" height="2"></rect>
            <rect id="Rectangle-Copy-4" fill="#FA141D" x="5" y="0" width="1" height="3"></rect>
            <rect id="Rectangle-Copy-5" fill="#FA141D" x="8" y="0" width="1" height="3"></rect>
            <rect id="Rectangle-Copy" fill="#FA141D" x="8" y="11" width="2" height="2"></rect>
            <rect id="Rectangle-Copy-3" fill="#FA141D" x="4" y="14" width="2" height="2"></rect>
            <rect id="Rectangle-Copy-2" fill="#FA141D" x="8" y="14" width="2" height="2"></rect>
            <rect id="Rectangle" fill="#FB1420" x="4" y="4" width="6" height="1"></rect>
        </g>
    </g>
</svg>